<?xml version="1.0" encoding="UTF-8"?>
<svg id="katman_1" data-name="katman 1" xmlns="http://www.w3.org/2000/svg" viewBox="0 0 138.33 40">
  <defs>
    <style>
      .cls-1 {
        fill: #fff;
      }

      .cls-2 {
        fill: #e535ab;
      }
    </style>
  </defs>
  <rect class="cls-2" width="138.33" height="40" rx="7" ry="7"/>
  <g>
    <path class="cls-1" d="M54,23.53v-1.92h-2.21v-1.2h3.55v3.84c-1.01.64-2.18,1.02-3.43,1.02-2.69,0-4.56-1.92-4.56-4.79s1.76-4.77,4.18-4.77c.96,0,1.75.34,2.32.9v-.93h1.31v3.31h-1.31v-1.14c-.51-.53-1.27-.83-2.08-.83-1.7,0-2.83,1.36-2.83,3.43s1.25,3.54,3.12,3.54c.62,0,1.31-.16,1.94-.46Z"/>
    <path class="cls-1" d="M60.12,23.93v-6.87h-1.31v-1.2h4.72c1.84,0,3.06,1.06,3.06,2.62,0,1.28-.78,2.22-2.02,2.56l1.9,2.88h.95v1.2h-1.95l-2.5-3.95h-1.31v2.75h1.2v1.2h-4.05v-1.2h1.31ZM61.66,17.06v2.99h1.62c1.12,0,1.79-.58,1.79-1.5s-.67-1.49-1.79-1.49h-1.62Z"/>
    <path class="cls-1" d="M70.91,23.93l2.85-8.07h1.89l2.87,8.07h.77v1.2h-3.38v-1.2h1.04l-.59-1.79h-3.38l-.61,1.79h1.07v1.2h-3.31v-1.2h.79ZM76,21.08l-1.35-4-1.33,4h2.67Z"/>
    <path class="cls-1" d="M83.45,23.93v-6.87h-1.34v-1.2h4.9c2.03,0,3.28,1.15,3.28,2.85s-1.23,2.91-3.31,2.91h-1.97v2.3h1.76v1.2h-4.66v-1.2h1.34ZM85,17.06v3.39h1.78c1.29,0,1.97-.67,1.97-1.73s-.67-1.66-1.94-1.66h-1.81Z"/>
    <path class="cls-1" d="M94.71,23.93v-6.87h-1.12v-1.2h3.78v1.2h-1.11v2.61h3.46v-2.61h-1.1v-1.2h3.78v1.2h-1.12v6.87h1.12v1.2h-3.78v-1.2h1.1v-3.06h-3.46v3.06h1.11v1.2h-3.78v-1.2h1.12Z"/>
    <path class="cls-1" d="M105.5,20.49c0-2.88,1.68-4.8,4.15-4.8s4.14,1.92,4.14,4.8c0,1.83-.67,3.27-1.79,4.07l.29.61c.27.56.53.7.91.7.29,0,.66-.13,1.09-.37l.43.94c-.62.35-1.22.54-1.73.54-.87,0-1.35-.35-1.83-1.36l-.26-.53c-.38.13-.82.19-1.26.19-2.46,0-4.15-1.92-4.15-4.8ZM107.05,20.52c0,.67.1,1.28.29,1.79.64-.69,1.22-.99,1.89-.99.86,0,1.42.43,1.95,1.5l.21.45c.54-.61.85-1.57.85-2.75,0-2.13-1.02-3.49-2.59-3.49s-2.59,1.36-2.59,3.49ZM107.69,23c.45.67,1.1,1.06,1.94,1.06.26,0,.51-.03.74-.11l-.35-.72c-.3-.64-.62-.9-1.09-.9-.38,0-.74.19-1.23.67Z"/>
    <path class="cls-1" d="M118.52,23.93v-6.87h-1.35v-1.2h4.4v1.2h-1.5v6.87h3.86v-1.74h1.33v2.95h-8.08v-1.2h1.35Z"/>
  </g>
  <g>
    <rect class="cls-1" x="10.14" y="17.93" width="20.96" height="1.09" transform="translate(-5.69 27.1) rotate(-60)"/>
    <rect class="cls-1" x="14.7" y="25.83" width="20.96" height="1.09"/>
    <rect class="cls-1" x="20.08" y="22.95" width="1.09" height="12.11" transform="translate(-14.8 32.36) rotate(-60)"/>
    <rect class="cls-1" x="29.19" y="7.17" width="1.09" height="12.11" transform="translate(3.42 32.36) rotate(-60)"/>
    <rect class="cls-1" x="14.58" y="12.67" width="12.11" height="1.09" transform="translate(-3.84 12.09) rotate(-30)"/>
    <rect class="cls-1" x="29.2" y="8" width="1.09" height="20.96" transform="translate(-5.25 17.35) rotate(-30)"/>
    <rect class="cls-1" x="15.53" y="15.05" width="1.09" height="12.11"/>
    <rect class="cls-1" x="33.75" y="15.05" width="1.09" height="12.11"/>
    <rect class="cls-1" x="24.47" y="28.52" width="10.53" height=".95" transform="translate(-10.51 18.75) rotate(-30)"/>
    <path class="cls-1" d="M36.28,27.51c-.63,1.09-2.03,1.47-3.12.84s-1.47-2.03-.84-3.12c.63-1.09,2.03-1.47,3.12-.84,1.1.63,1.47,2.03.84,3.12"/>
    <path class="cls-1" d="M18.04,16.98c-.63,1.09-2.03,1.47-3.12.84-1.09-.63-1.47-2.03-.84-3.12.63-1.09,2.03-1.47,3.12-.84,1.09.63,1.47,2.03.84,3.12"/>
    <path class="cls-1" d="M14.09,27.51c-.63-1.09-.26-2.49.84-3.12,1.09-.63,2.49-.26,3.12.84.63,1.09.26,2.49-.84,3.12-1.1.63-2.49.26-3.12-.84"/>
    <path class="cls-1" d="M32.32,16.98c-.63-1.09-.26-2.49.84-3.12,1.09-.63,2.49-.26,3.12.84.63,1.09.26,2.49-.84,3.12-1.09.63-2.49.26-3.12-.84"/>
    <path class="cls-1" d="M25.18,33.92c-1.26,0-2.28-1.02-2.28-2.28s1.02-2.28,2.28-2.28,2.28,1.02,2.28,2.28-1.02,2.28-2.28,2.28"/>
    <path class="cls-1" d="M25.18,12.86c-1.26,0-2.28-1.02-2.28-2.28s1.02-2.28,2.28-2.28,2.28,1.02,2.28,2.28-1.02,2.28-2.28,2.28"/>
  </g>
</svg>